<svg width="806" height="591" viewBox="0 0 806 591" fill="none" xmlns="http://www.w3.org/2000/svg">
<g filter="url(#filter0_d_155_231)">
<path d="M137.21 93.6274C128.585 95.4295 111.395 79.9295 103.404 70.5121C77.589 49.0131 63.452 78.8599 93.57 89.7754C123.688 100.691 151.347 123.806 148.274 182.236C134.752 270.845 89.8821 255.435 54.2322 249.014C18.5823 242.593 10.5918 188.657 10.5918 162.332C10.5918 136.006 19.8116 131.105 32.7193 131.105C57.2824 131.105 75.7451 155.269 87.4235 151.416C99.1019 147.563 79.1219 133.626 63.452 123.806C46.6817 113.297 19.1969 57.6703 54.2322 22.9975C82.2604 -4.7408 122.869 -0.117755 139.669 5.66105C169.787 18.5029 152.577 90.4169 137.21 93.6274Z" fill="white"/>
<path d="M436.327 61.8684C414.327 56.6567 409.117 60.1312 406.801 72.8711C406.801 93.7178 417.801 90.244 439.801 81.5577C461.801 72.8714 472.801 94.8767 473.38 116.882C473.959 138.887 409.696 128.464 406.801 138.308C403.906 148.153 413.749 159.155 450.222 148.153C486.696 137.15 493.643 170.737 494.801 220.538C495.959 270.34 388.854 251.23 368.012 247.755C347.17 244.281 353.538 203.745 355.275 164.946C357.012 126.147 350.643 13.8046 381.906 5.118C421.275 -6.46372 449.643 10.3298 455.433 26.5442C461.222 42.7586 458.327 67.0802 436.327 61.8684Z" fill="white"/>
<path d="M518.623 4.98792C497.297 9.21696 498.684 51.4331 498.65 80.1395C498.616 108.846 501.483 177.135 508.076 220.804C516.317 275.39 597.066 248.397 617.801 241.309C638.535 234.22 631.473 166.718 624.279 150.471C617.085 134.225 597.008 148.825 571.81 151.07C546.611 153.315 546.996 124.747 578.108 130.71C609.219 136.673 608.746 118.081 609.115 95.9195C609.484 73.7584 593.785 76.3219 570.288 84.8209C551.49 91.6202 547.149 75.4302 547.328 66.4853C549.332 56.4073 557.315 58.0022 577.817 61.4396C602.764 65.6223 616.76 42.0773 607.191 18.4723C597.621 -5.13261 552.85 -1.79932 518.623 4.98792Z" fill="white"/>
<path d="M233.118 70.6031C231.975 88.8225 228.078 93.9163 230.832 106.453C235.405 112.917 246.839 110.566 263.991 109.391C281.142 108.216 271.994 89.4102 271.994 84.1211C271.994 78.832 263.419 20.0646 275.425 11.2494C287.431 2.43433 304.582 -0.13495 328.022 10.0741C351.462 20.2831 338.884 161.694 342.314 202.831C345.745 243.969 329.165 249.039 319.446 251.021C309.727 253.002 274.281 265.125 274.281 224.575C274.281 192.136 274.281 189.903 271.994 178.149C269.708 166.396 230.832 165.22 230.832 186.964V224.575C230.832 257.569 194.207 252.565 173.626 249.039C153.045 245.513 159.333 204.376 161.048 165.002C162.764 125.628 156.475 11.6189 187.347 2.80344C216.539 -1.67939 227.401 3.60849 233.118 20.0634C238.836 36.5183 234.556 47.7013 233.118 70.6031Z" fill="white"/>
<path fill-rule="evenodd" clip-rule="evenodd" d="M640.266 76.4392L640.266 76.2118C640.299 48.3595 640.34 12.859 667.509 4.61688C700.201 -5.30072 726.61 2.04911 747.999 14.5232C768.29 26.357 777.558 49.8147 775.245 72.1051C772.625 97.3416 753.715 126.554 722.429 126.554C695.596 126.554 699.222 139.158 703.331 153.442C704.013 155.813 704.709 158.231 705.28 160.644C710.853 184.172 716.976 210.218 712.535 230.883C707.138 255.994 653.889 273.95 644.609 213.272C638.865 175.713 639.591 126.677 640.063 94.8154C640.168 87.7379 640.26 81.5078 640.266 76.4392ZM701.989 84.851C712.057 87.5746 717.589 81.414 720.51 70.5988C723.431 59.7835 722.636 48.4091 712.568 45.6855C702.5 42.9619 691.72 46.5352 688.798 57.3504C685.877 68.1657 691.921 82.1274 701.989 84.851Z" fill="white"/>
<path d="M371.966 297.473C398.157 274.475 424.576 291.085 426.265 307.056C428.353 326.8 432.653 384.352 437.752 402.238C443.817 423.515 471.897 428.238 480.563 402.238C489.507 375.409 481.752 319.965 493.34 302.584C503.561 287.253 524.806 285.055 541.889 304.501C558.882 323.844 563.635 448.762 550.194 488.478C535.681 521.515 514.871 550.701 449.486 544.465C367.754 536.67 354.472 501.02 352.186 449.626C353.928 410.397 345.775 320.471 371.966 297.473Z" fill="white"/>
<path d="M255.164 289.125C224.852 285.574 229.013 305.103 226.635 335.285C226.635 357.971 225.684 415.652 221.88 464.89C217.125 526.438 222.475 550.11 291.42 544.784C360.366 539.457 352.639 506.317 344.318 477.318C335.997 448.32 325.299 438.851 305.091 442.994C284.882 447.136 283.099 439.443 288.449 370.202C293.798 300.961 285.477 292.675 255.164 289.125Z" fill="white"/>
<path d="M153.892 367.374C135.229 345.357 104.022 348.54 98.0034 392.572C90.9822 428.375 96.0011 453.894 125.409 456.716C154.818 459.538 156.711 433.719 175.064 428.581C197.878 422.193 214.795 439.922 211.184 463.939C207.573 487.956 175.066 564.036 97.9456 538.01C20.8247 511.983 28.0976 383.495 61.7985 329.456C95.4994 275.418 161.369 281.94 187.669 309.755C202.895 325.858 218.993 364.454 199.735 377.896C180.476 391.337 166.289 381.998 153.892 367.374Z" fill="white"/>
<path fill-rule="evenodd" clip-rule="evenodd" d="M570.908 399.229V376.586C570.908 351.925 574.648 312.466 593.901 299.392C615.312 284.853 650.22 280.941 673.476 294.504C695.539 307.372 706.52 327.054 704.611 345.451C702.701 363.849 698.242 372.34 681.968 393.568C712.979 393.337 750.319 414.172 749.189 470.696C748.037 528.291 685.374 541.204 655.826 542.163C653.985 542.163 652.005 542.185 649.913 542.208C624.253 542.488 581.888 542.951 575.627 505.883C569.599 470.192 570.145 443.07 570.644 418.238C570.774 411.784 570.901 405.484 570.908 399.229ZM661.603 353.863C658.735 364.48 653.305 370.527 643.422 367.854C633.538 365.18 627.605 351.475 630.473 340.858C633.341 330.241 643.923 326.734 653.806 329.407C663.69 332.081 664.47 343.246 661.603 353.863ZM666.778 483.571C679.286 484.796 684.776 474.36 685.634 465.57C686.944 452.134 681.589 439.892 669.081 438.667C656.572 437.443 648.517 445.381 647.206 458.817C645.896 472.252 654.269 482.346 666.778 483.571Z" fill="white"/>
</g>
<defs>
<filter id="filter0_d_155_231" x="0.591797" y="0" width="805" height="590.51" filterUnits="userSpaceOnUse" color-interpolation-filters="sRGB">
<feFlood flood-opacity="0" result="BackgroundImageFix"/>
<feColorMatrix in="SourceAlpha" type="matrix" values="0 0 0 0 0 0 0 0 0 0 0 0 0 0 0 0 0 0 127 0" result="hardAlpha"/>
<feOffset dx="10" dy="25"/>
<feGaussianBlur stdDeviation="10"/>
<feComposite in2="hardAlpha" operator="out"/>
<feColorMatrix type="matrix" values="0 0 0 0 1 0 0 0 0 0.443137 0 0 0 0 0.627451 0 0 0 1 0"/>
<feBlend mode="normal" in2="BackgroundImageFix" result="effect1_dropShadow_155_231"/>
<feBlend mode="normal" in="SourceGraphic" in2="effect1_dropShadow_155_231" result="shape"/>
</filter>
</defs>
</svg>
