<svg width="129" height="142" viewBox="0 0 129 142" fill="none" xmlns="http://www.w3.org/2000/svg">
<path d="M1.14767 68.1679C0.697731 74.7036 30.1443 82.2718 44.9238 85.239C39.0377 103.103 29.879 139.096 40.3328 140.152C50.7865 141.209 63.6779 106.345 68.8169 88.7811C86.9408 97.4842 124.031 111.505 127.401 97.9656C130.771 84.4259 98.3141 75.5504 78.5646 71.902C93.1301 64.4543 114.926 45.5136 110.382 36.558C105.839 27.6025 82.5595 45.5128 70.633 55.4563C72.8531 37.4119 73.8776 3.4472 64.6742 1.99966C55.4708 0.552115 53.4087 30.0117 56.6302 45.262C43.2256 35.5966 9.85961 19.934 7.04026 25.5876C4.22091 31.2413 30.7593 53.9525 45.96 64.139C30.1573 63.0671 1.59761 61.6322 1.14767 68.1679Z" stroke="#8B85FF" stroke-width="2" stroke-linejoin="round"/>
</svg>
