<svg width="242" height="41" viewBox="0 0 242 41" fill="none" xmlns="http://www.w3.org/2000/svg">
<path d="M20.0162 15.3597C18.6527 15.6445 15.9352 13.1943 14.6721 11.7056C10.5911 8.30694 8.35627 13.0252 13.1174 14.7507C17.8785 16.4763 22.251 20.1304 21.7652 29.3672C19.6275 43.3747 12.5344 40.9386 6.89878 39.9235C1.26315 38.9085 0 30.3822 0 26.2206C0 22.059 1.45749 21.2842 3.49798 21.2842C7.38097 21.2842 10.2996 25.1041 12.1457 24.495C13.9919 23.886 10.8334 21.6827 8.35627 20.1304C5.70519 18.4691 1.36032 9.67549 6.89878 4.19432C11.3296 -0.190621 17.749 0.540201 20.4049 1.45373C25.166 3.48379 22.4453 14.8521 20.0162 15.3597Z" fill="#FF71A0"/>
<path d="M67.2999 10.3391C63.8221 9.51524 62.9984 10.0645 62.6324 12.0785C62.6324 15.374 64.3713 14.8248 67.8491 13.4517C71.3269 12.0785 73.0658 15.5572 73.1573 19.0358C73.2489 22.5145 63.09 20.8667 62.6324 22.4229C62.1747 23.9792 63.7307 25.7185 69.4965 23.9792C75.2623 22.2398 76.3606 27.5493 76.5436 35.4221C76.7267 43.2948 59.7952 40.2739 56.5004 39.7246C53.2057 39.1754 54.2124 32.7673 54.487 26.6339C54.7615 20.5005 53.7548 2.74108 58.6969 1.36788C64.9204 -0.462985 69.4049 2.19177 70.3201 4.75499C71.2353 7.3182 70.7777 11.163 67.2999 10.3391Z" fill="#FF71A0"/>
<path d="M80.3107 1.3471C76.9394 2.01563 77.1586 8.68927 77.1533 13.2273C77.148 17.7652 77.6012 28.5605 78.6434 35.4638C79.9462 44.093 92.7112 39.8258 95.9889 38.7052C99.2667 37.5847 98.1503 26.9138 97.0131 24.3455C95.8759 21.7772 92.702 24.0852 88.7186 24.4401C84.7351 24.795 84.796 20.2789 89.7142 21.2215C94.6324 22.1642 94.5576 19.2251 94.616 15.7218C94.6743 12.2185 92.1925 12.6237 88.478 13.9673C85.5064 15.0421 84.8201 12.4828 84.8485 11.0688C85.1652 9.4756 86.4272 9.72773 89.6682 10.2711C93.612 10.9323 95.8244 7.21027 94.3117 3.47874C92.799 -0.252782 85.7213 0.274153 80.3107 1.3471Z" fill="#FF71A0"/>
<path d="M35.1769 11.7199C34.9961 14.6001 34.38 15.4053 34.8154 17.3871C35.5384 18.409 37.3459 18.0374 40.0572 17.8516C42.7685 17.6658 41.3225 14.693 41.3225 13.8569C41.3225 13.0208 39.9669 3.73067 41.8648 2.33716C43.7627 0.943641 46.474 0.537483 50.1794 2.15135C53.8849 3.76522 51.8966 26.1198 52.4389 32.6229C52.9811 39.126 50.3602 39.9276 48.8238 40.2408C47.2874 40.554 41.684 42.4704 41.684 36.0602C41.684 30.9321 41.684 30.5791 41.3225 28.7211C40.961 26.863 34.8154 26.6772 34.8154 30.1146V36.0602C34.8154 41.276 29.0257 40.485 25.7722 39.9276C22.5186 39.3702 23.5128 32.8671 23.7839 26.6427C24.055 20.4184 23.0609 2.39556 27.9412 1.00199C32.556 0.293335 34.2731 1.12926 35.1769 3.73049C36.0807 6.33172 35.4041 8.09955 35.1769 11.7199Z" fill="#FF71A0"/>
<path fill-rule="evenodd" clip-rule="evenodd" d="M99.5387 12.642L99.5387 12.606C99.5439 8.20308 99.5505 2.59106 103.845 1.28813C109.013 -0.279666 113.188 0.882214 116.569 2.85414C119.777 4.72486 121.242 8.43312 120.876 11.9568C120.462 15.9463 117.473 20.5643 112.527 20.5643C108.285 20.5643 108.859 22.5567 109.508 24.8149C109.616 25.1897 109.726 25.5718 109.816 25.9533C110.697 29.6727 111.665 33.7901 110.963 37.0569C110.11 41.0265 101.692 43.8649 100.225 34.2729C99.3172 28.3355 99.432 20.5837 99.5066 15.547C99.5231 14.4281 99.5377 13.4432 99.5387 12.642ZM109.297 13.9722C110.889 14.4028 111.763 13.4289 112.225 11.7192C112.687 10.0095 112.561 8.21139 110.97 7.78084C109.378 7.35028 107.674 7.91516 107.212 9.62486C106.75 11.3346 107.706 13.5417 109.297 13.9722Z" fill="#FF71A0"/>
<path d="M181.588 1.78927C185.728 -1.84626 189.904 0.779415 190.171 3.30417C190.502 6.42539 191.181 15.5233 191.987 18.3509C192.946 21.7143 197.385 22.4609 198.755 18.3509C200.169 14.1095 198.943 5.34487 200.775 2.59728C202.391 0.173641 205.749 -0.173824 208.45 2.90022C211.136 5.95808 211.887 25.7055 209.762 31.9838C207.468 37.2064 204.179 41.8202 193.842 40.8344C180.922 39.6021 178.822 33.9665 178.461 25.842C178.736 19.6406 177.447 5.4248 181.588 1.78927Z" fill="#FF71A0"/>
<path d="M163.122 0.469988C158.331 -0.0913336 158.988 2.99594 158.612 7.76717C158.612 11.3534 158.462 20.4718 157.861 28.2555C157.109 37.9851 157.955 41.7272 168.854 40.8852C179.753 40.0432 178.532 34.8042 177.216 30.2201C175.901 25.636 174.209 24.1391 171.015 24.794C167.82 25.4489 167.538 24.2327 168.384 13.2869C169.23 2.34115 167.914 1.03131 163.122 0.469988Z" fill="#FF71A0"/>
<path d="M147.114 12.8398C144.163 9.35942 139.23 9.86257 138.279 16.8232C137.169 22.4831 137.962 26.5172 142.611 26.9633C147.26 27.4094 147.559 23.3278 150.46 22.5155C154.067 21.5058 156.741 24.3084 156.17 28.1051C155.6 31.9018 150.461 43.9287 138.269 39.8144C126.078 35.7001 127.228 15.3883 132.555 6.84573C137.883 -1.69685 148.295 -0.665762 152.453 3.73137C154.86 6.27696 157.405 12.3782 154.36 14.5031C151.316 16.628 149.073 15.1517 147.114 12.8398Z" fill="#FF71A0"/>
<path fill-rule="evenodd" clip-rule="evenodd" d="M213.037 17.8751V14.2956C213.037 10.3973 213.628 4.15934 216.671 2.09262C220.056 -0.205785 225.575 -0.8242 229.251 1.31997C232.739 3.35409 234.475 6.46548 234.173 9.3738C233.871 12.2821 233.166 13.6244 230.593 16.9802C235.496 16.9438 241.399 20.2374 241.22 29.1728C241.038 38.2775 231.132 40.3188 226.461 40.4706C226.17 40.4706 225.857 40.474 225.526 40.4776H225.526C221.47 40.5219 214.772 40.5951 213.783 34.7352C212.83 29.0931 212.916 24.8057 212.995 20.8801C213.016 19.8598 213.036 18.8639 213.037 17.8751ZM227.375 10.7037C226.922 12.382 226.064 13.338 224.501 12.9153C222.939 12.4927 222.001 10.3261 222.454 8.64779C222.908 6.96948 224.58 6.41497 226.143 6.83762C227.705 7.26027 227.829 9.02536 227.375 10.7037ZM228.192 31.2079C230.169 31.4016 231.037 29.7518 231.172 28.3622C231.38 26.2382 230.533 24.3031 228.556 24.1095C226.578 23.9158 225.305 25.1707 225.098 27.2947C224.891 29.4187 226.214 31.0143 228.192 31.2079Z" fill="#FF71A0"/>
</svg>
