<svg width="531" height="611" viewBox="0 0 531 611" fill="none" xmlns="http://www.w3.org/2000/svg">
<g filter="url(#filter0_d_222_40)">
<path d="M24.9998 75.3441C24.9998 48.6444 46.6441 27 73.3438 27H412.656C439.355 27 461 48.6444 461 75.3441V383H24.9998V75.3441Z" fill="#202020"/>
<path d="M13 48.3441C13 21.6444 34.6444 0 61.3441 0H445.656C472.356 0 494 21.6444 494 48.3441V392.607V513.656C494 540.356 472.356 562 445.656 562H61.3441C34.6444 562 13 540.356 13 513.656V392.607V48.3441Z" fill="#C8CEFF"/>
<path d="M88.2257 429.938L93.4356 445.972H110.295L96.6554 455.882L101.865 471.916L88.2257 462.006L74.586 471.916L79.7959 455.882L66.1562 445.972H83.0158L88.2257 429.938Z" fill="#8B85FF"/>
<path d="M134.636 429.938L139.846 445.972H156.705L143.066 455.882L148.275 471.916L134.636 462.006L120.996 471.916L126.206 455.882L112.566 445.972H129.426L134.636 429.938Z" fill="#8B85FF"/>
<path d="M181.046 429.938L186.256 445.972H203.116L189.476 455.882L194.686 471.916L181.046 462.006L167.407 471.916L172.617 455.882L158.977 445.972H175.837L181.046 429.938Z" fill="#8B85FF"/>
<path d="M227.457 429.938L232.667 445.972H249.526L235.886 455.882L241.096 471.916L227.457 462.006L213.817 471.916L219.027 455.882L205.387 445.972H222.247L227.457 429.938Z" fill="#8B85FF"/>
<path d="M273.867 429.938L279.077 445.972H295.936L282.297 455.882L287.507 471.916L273.867 462.006L260.227 471.916L265.437 455.882L251.798 445.972H268.657L273.867 429.938Z" fill="#8B85FF"/>
</g>
<defs>
<filter id="filter0_d_222_40" x="0.913979" y="0" width="529.344" height="610.344" filterUnits="userSpaceOnUse" color-interpolation-filters="sRGB">
<feFlood flood-opacity="0" result="BackgroundImageFix"/>
<feColorMatrix in="SourceAlpha" type="matrix" values="0 0 0 0 0 0 0 0 0 0 0 0 0 0 0 0 0 0 127 0" result="hardAlpha"/>
<feOffset dx="12.086" dy="24.172"/>
<feGaussianBlur stdDeviation="12.086"/>
<feComposite in2="hardAlpha" operator="out"/>
<feColorMatrix type="matrix" values="0 0 0 0 0.545098 0 0 0 0 0.521569 0 0 0 0 1 0 0 0 1 0"/>
<feBlend mode="normal" in2="BackgroundImageFix" result="effect1_dropShadow_222_40"/>
<feBlend mode="normal" in="SourceGraphic" in2="effect1_dropShadow_222_40" result="shape"/>
</filter>
</defs>
</svg>
